<svg xmlns="http://www.w3.org/2000/svg" viewBox="0 0 40 40" fill="none">
  <path stroke="#5327BA" strokeLinecap="round" strokeLinejoin="round" strokeWidth="2.5" d="M5.625 32.5h28.75m-28.75 0a1.875 1.875 0 0 1-1.875-1.875M5.625 32.5h2.5c1.036 0 1.875-.84 1.875-1.875m-6.25 0V9.375m0 21.25v-2.5c0-1.035.84-1.875 1.875-1.875m30.625 4.375V9.375m0 21.25c0 1.035-.84 1.875-1.875 1.875m1.875-1.875v-2.5c0-1.035-.84-1.875-1.875-1.875m0 6.25h-2.5A1.875 1.875 0 0 1 30 30.625M34.375 7.5H5.625m28.75 0c1.035 0 1.875.84 1.875 1.875M34.375 7.5h-2.5C30.84 7.5 30 8.34 30 9.375m6.25 0v2.5c0 1.036-.84 1.875-1.875 1.875M5.625 7.5c-1.036 0-1.875.84-1.875 1.875M5.625 7.5h2.5C9.161 7.5 10 8.34 10 9.375m-6.25 0v2.5c0 1.036.84 1.875 1.875 1.875m0 0h2.5m-2.5 0c-1.036 0-1.875.84-1.875 1.875v2.5C3.75 19.16 4.59 20 5.625 20m2.5-6.25c1.036 0 1.875-.84 1.875-1.875v-2.5M8.125 13.75c1.036 0 1.875.84 1.875 1.875v2.5m0-8.75v8.75m0-8.75c0-1.036.84-1.875 1.875-1.875h16.25C29.16 7.5 30 8.34 30 9.375m1.875 4.375h2.5m-2.5 0A1.875 1.875 0 0 1 30 11.875v-2.5m1.875 4.375c-1.035 0-1.875.84-1.875 1.875v2.5m4.375-4.375c1.035 0 1.875.84 1.875 1.875v2.5c0 1.035-.84 1.875-1.875 1.875M30 9.375v8.75M11.875 20h16.25m-16.25 0A1.875 1.875 0 0 1 10 18.125M11.875 20C10.839 20 10 20.84 10 21.875m0-3.75C10 19.16 9.16 20 8.125 20M30 18.125C30 19.16 29.16 20 28.125 20M30 18.125C30 19.16 30.84 20 31.875 20m-3.75 0C29.16 20 30 20.84 30 21.875m-20 8.75v-8.75m0 8.75c0 1.035.84 1.875 1.875 1.875h16.25c1.035 0 1.875-.84 1.875-1.875m-20 0v-2.5c0-1.035-.84-1.875-1.875-1.875M30 30.625v-8.75m0 8.75v-2.5c0-1.035.84-1.875 1.875-1.875M30 21.875v2.5c0 1.035.84 1.875 1.875 1.875M30 21.875C30 20.84 30.84 20 31.875 20M10 21.875v2.5c0 1.035-.84 1.875-1.875 1.875M10 21.875C10 20.84 9.16 20 8.125 20m-2.5 0h2.5m-2.5 0c-1.036 0-1.875.84-1.875 1.875v2.5c0 1.035.84 1.875 1.875 1.875M31.875 20h2.5m0 0c1.035 0 1.875.84 1.875 1.875v2.5c0 1.035-.84 1.875-1.875 1.875m-28.75 0h2.5m23.75 0h2.5"/>
</svg>