<svg width="40" height="41" viewBox="0 0 40 41" fill="none" xmlns="http://www.w3.org/2000/svg">
<path fillRule="evenodd" clipRule="evenodd" d="M4.79218 14.1169H6.38449C6.8678 14.1169 7.25968 13.7256 7.25968 13.2423V8.13176C7.25968 7.64839 6.8678 7.25684 6.38449 7.25684H4.79218C4.30881 7.25684 3.91699 7.64839 3.91699 8.13176V13.2423C3.91699 13.7256 4.30881 14.1169 4.79218 14.1169ZM22.9562 13.2448V10.1274C24.1875 10.1645 25.1992 11.1833 25.1992 12.4356V30.7049C25.1992 31.9786 24.1632 33.0285 22.8893 33.0285H2.30992C1.03409 33.0285 0 31.9807 0 30.7049V12.4356C0 11.1833 1.01176 10.1645 2.24303 10.1274V13.2448C2.24303 14.6538 3.38603 15.7892 4.79478 15.7892H6.40489C7.81359 15.7892 8.97174 14.6538 8.97174 13.2448V10.1162H16.2275V13.2448C16.2275 14.6538 17.3857 15.7892 18.7946 15.7892H20.4044C21.8132 15.7892 22.9562 14.6538 22.9562 13.2448ZM21.2099 30.5659C21.7615 30.5659 22.2086 30.1186 22.2086 29.5672L22.2085 20.1305C22.2085 19.5789 21.7615 19.1316 21.2099 19.1316H3.94531C3.39368 19.1316 2.94669 19.5789 2.94669 20.1305V29.5672C2.94669 30.1186 3.39374 30.5659 3.94531 30.5659H21.2099ZM9.10431 21.4721C9.10431 21.1492 8.84246 20.8877 8.51938 20.8877H6.47817C6.15546 20.8877 5.89355 21.1492 5.89355 21.4721V23.513C5.89355 23.8362 6.15546 24.0979 6.47817 24.0979H8.51938C8.84246 24.0979 9.10431 23.8362 9.10431 23.513V21.4721ZM14.2017 21.4721C14.2017 21.1492 13.9398 20.8877 13.6173 20.8877H11.5758C11.2531 20.8877 10.9912 21.1492 10.9912 21.4721V23.513C10.9912 23.8362 11.2531 24.0979 11.5758 24.0979H13.6173C13.9398 24.0979 14.2017 23.8362 14.2017 23.513V21.4721ZM18.7238 20.8877C19.0465 20.8877 19.3084 21.1492 19.3084 21.4721V23.513C19.3084 23.8362 19.0465 24.0979 18.7238 24.0979H16.6826C16.3595 24.0979 16.0977 23.8362 16.0977 23.513V21.4721C16.0977 21.1492 16.3595 20.8877 16.6826 20.8877H18.7238ZM9.10431 26.5739C9.10431 26.2506 8.84246 25.9893 8.51938 25.9893H6.47817C6.15546 25.9893 5.89355 26.2506 5.89355 26.5739V28.6145C5.89355 28.9375 6.15546 29.1991 6.47817 29.1991H8.51938C8.84246 29.1991 9.10431 28.9375 9.10431 28.6145V26.5739ZM13.6173 25.9893C13.9398 25.9893 14.2017 26.2506 14.2017 26.5739V28.6145C14.2017 28.9375 13.9398 29.1991 13.6173 29.1991H11.5758C11.2531 29.1991 10.9912 28.9375 10.9912 28.6145V26.5739C10.9912 26.2506 11.2531 25.9893 11.5758 25.9893H13.6173ZM19.3084 26.5739C19.3084 26.2506 19.0465 25.9893 18.7241 25.9893H16.6826C16.3595 25.9893 16.0977 26.2506 16.0977 26.5739V28.6145C16.0977 28.9375 16.3595 29.1991 16.6826 29.1991H18.7241C19.0465 29.1991 19.3084 28.9375 19.3084 28.6145V26.5739ZM20.3678 14.1169H18.7755C18.2923 14.1169 17.9004 13.7256 17.9004 13.2423V8.13176C17.9004 7.64839 18.2923 7.25684 18.7755 7.25684H20.3678C20.8509 7.25684 21.2428 7.64839 21.2427 8.13176V13.2423C21.2427 13.7256 20.8508 14.1169 20.3678 14.1169Z" fill="url(#paint0_linear_4695_6778)"/>
<defs>
<linearGradient id="paint0_linear_4695_6778" x1="19.5716" y1="7.25684" x2="19.5716" y2="33.0285" gradientUnits="userSpaceOnUse">
<stop stopColor="#78CCFF"/>
<stop offset="1" stopColor="#4054FF"/>
</linearGradient>
</defs>
</svg>
