<svg width="40" height="41" viewBox="0 0 40 41" fill="none" xmlns="http://www.w3.org/2000/svg">
<path fillRule="evenodd" clipRule="evenodd" d="M5.37847 8.42653C8.10287 6.1323 11.5442 4.8418 15.1954 4.8418C23.6326 4.8418 30.4961 11.7053 30.4961 20.1425C30.4961 28.5797 23.6326 35.4432 15.1954 35.4432C7.48559 35.4432 0.957881 29.6866 0.0101122 22.0538C-0.079069 21.3333 0.431537 20.6793 1.15023 20.5901C1.86893 20.5027 2.52292 21.0098 2.6121 21.7303C3.39725 28.0516 8.80757 32.8202 15.1954 32.8202C22.1865 32.8202 27.8731 27.1336 27.8731 20.1425C27.8731 13.1514 22.1865 7.46477 15.1954 7.46477C12.3049 7.46477 9.56649 8.43003 7.36144 10.1752H9.01217C9.73611 10.1752 10.3237 10.7627 10.3237 11.4867C10.3237 12.2106 9.73611 12.7982 9.01217 12.7982H4.06698C3.34304 12.7982 2.75549 12.2106 2.75549 11.4867V6.53974C2.75549 5.8158 3.34304 5.22825 4.06698 5.22825C4.79092 5.22825 5.37847 5.8158 5.37847 6.53974V8.42653ZM16.1749 18.8319C18.4796 18.8319 20.328 20.8236 20.0884 23.1773C19.903 24.9994 18.3922 26.3616 16.6121 26.6414V27.138C16.6121 27.8619 16.0245 28.4495 15.3006 28.4495C14.5767 28.4495 13.9891 27.8619 13.9891 27.138V26.7008H13.1165C12.3926 26.7008 11.805 26.1133 11.805 25.3893C11.805 24.6654 12.3926 24.0778 13.1165 24.0778H16.1749C16.8989 24.0778 17.4864 23.4886 17.4864 22.7664C17.4864 22.0442 16.8989 21.4549 16.1749 21.4549H14.6588C12.6007 21.4549 10.7209 19.979 10.5128 17.9313C10.289 15.7315 11.896 13.8692 13.9891 13.6332V13.1488C13.9891 12.4248 14.5767 11.8373 15.3006 11.8373C16.0245 11.8373 16.6121 12.4248 16.6121 13.1488V13.5859H17.4934C18.2174 13.5859 18.8049 14.1735 18.8049 14.8974C18.8049 15.6214 18.2174 16.2089 17.4934 16.2089H14.4263C13.7023 16.2089 13.1148 16.7965 13.1148 17.5204C13.1148 18.2443 13.7023 18.8319 14.4263 18.8319H16.1749Z" fill="url(#paint0_linear_4695_6769)"/>
<defs>
<linearGradient id="paint0_linear_4695_6769" x1="15.248" y1="4.8418" x2="15.248" y2="35.4432" gradientUnits="userSpaceOnUse">
<stop stopColor="#77CCFF"/>
<stop offset="1" stopColor="#3E52FF"/>
</linearGradient>
</defs>
</svg>
