<svg width="27" height="26" viewBox="0 0 27 26" fill="none" xmlns="http://www.w3.org/2000/svg">
<path d="M0.796602 9.40041C0.235875 9.75626 0.0697864 10.4993 0.425632 11.06C0.781478 11.6207 1.52451 11.7868 2.08523 11.431L0.796602 9.40041ZM2.08523 11.431L13.1058 4.43716L11.8172 2.40659L0.796602 9.40041L2.08523 11.431Z" fill="url(#paint0_linear_4695_8809)"/>
<path d="M9.27707 23.6006C8.71634 23.9565 8.55026 24.6995 8.9061 25.2602C9.26195 25.8209 10.005 25.987 10.5657 25.6312L9.27707 23.6006ZM10.5657 25.6312L21.5863 18.6374L20.2976 16.6068L9.27707 23.6006L10.5657 25.6312Z" fill="url(#paint1_linear_4695_8809)"/>
<path d="M6.3049 18.9365C5.74418 19.2924 5.57809 20.0354 5.93393 20.5961C6.28978 21.1569 7.03281 21.323 7.59353 20.9671L6.3049 18.9365ZM7.59353 20.9671L18.6141 13.9733L17.3255 11.9427L6.3049 18.9365L7.59353 20.9671Z" fill="url(#paint2_linear_4695_8809)"/>
<path d="M1.4343 15.544C0.873571 15.8998 0.707482 16.6428 1.06333 17.2036C1.41917 17.7643 2.1622 17.9304 2.72293 17.5745L1.4343 15.544ZM2.72293 17.5745L13.7435 10.5807L12.4549 8.55014L1.4343 15.544L2.72293 17.5745Z" fill="url(#paint3_linear_4695_8809)"/>
<path d="M25.0119 5.25558C22.0765 0.637747 15.9534 -0.726836 11.3355 2.20827C6.7174 5.14367 5.3534 11.2671 8.28851 15.885C11.2236 20.5031 17.3468 21.8674 21.9649 18.932C26.5828 15.9969 27.947 9.87371 25.0119 5.25558ZM18.335 9.57402C17.6341 8.47134 17.96 7.00869 19.063 6.3075C20.1659 5.60632 21.6283 5.93254 22.3295 7.03522C23.0307 8.13848 22.7047 9.60085 21.6018 10.302C20.4988 11.0029 19.0361 10.6773 18.335 9.57402ZM11.6883 12.1166C12.1146 11.8454 12.6802 11.9715 12.9513 12.3978C13.2225 12.8244 13.0961 13.39 12.6698 13.6609C12.2432 13.932 11.6779 13.8059 11.4068 13.3796C11.1356 12.953 11.2617 12.3877 11.6883 12.1166ZM14.6133 13.6597C14.8634 13.5008 15.1948 13.5746 15.3537 13.8247C15.5126 14.0748 15.4388 14.4059 15.1887 14.5648C14.9384 14.724 14.6072 14.6502 14.4483 14.4001C14.2894 14.15 14.3629 13.8186 14.6133 13.6597ZM15.3318 4.79063C15.082 4.94927 14.7506 4.87571 14.5917 4.62535C14.4327 4.37528 14.5066 4.04416 14.7564 3.88523C15.0064 3.7263 15.3381 3.79985 15.4968 4.04993C15.656 4.30029 15.5819 4.6317 15.3318 4.79063Z" fill="url(#paint4_radial_4695_8809)"/>
<path d="M15.1875 14.566C14.9372 14.7253 14.6061 14.6514 14.4471 14.4013C14.2882 14.1513 14.3618 13.8199 14.6121 13.6609C14.8622 13.502 15.1936 13.5758 15.3525 13.8259C15.5115 14.076 15.4376 14.4071 15.1875 14.566Z" fill="white"/>
<path d="M12.6648 13.6589C12.2382 13.93 11.6728 13.804 11.4017 13.3777C11.1306 12.9511 11.2566 12.3857 11.6832 12.1146C12.1095 11.8435 12.6751 11.9695 12.9463 12.3958C13.2174 12.8224 13.0911 13.388 12.6648 13.6589Z" fill="white"/>
<path d="M15.3322 4.78809C15.0824 4.94673 14.751 4.87318 14.5921 4.62282C14.4332 4.37275 14.507 4.04163 14.7568 3.8827C15.0069 3.72377 15.3386 3.79732 15.4972 4.04739C15.6564 4.29776 15.5823 4.62917 15.3322 4.78809Z" fill="white"/>
<path d="M21.602 10.3026C20.4991 11.0035 19.0364 10.6778 18.3352 9.57456C17.6343 8.47187 17.9603 7.00922 19.0632 6.30804C20.1662 5.60685 21.6286 5.93307 22.3298 7.03576C23.031 8.13902 22.705 9.60138 21.602 10.3026Z" fill="white"/>
<defs>
<linearGradient id="paint0_linear_4695_8809" x1="12.3377" y1="3.42187" x2="0.148102" y2="11.623" gradientUnits="userSpaceOnUse">
<stop stopColor="#0163E4"/>
<stop offset="1" stopColor="#62A5FF"/>
</linearGradient>
<linearGradient id="paint1_linear_4695_8809" x1="19.2497" y1="18.2925" x2="8.6228" y2="25.81" gradientUnits="userSpaceOnUse">
<stop stopColor="#0163E4"/>
<stop offset="1" stopColor="#79B2FF"/>
</linearGradient>
<linearGradient id="paint2_linear_4695_8809" x1="12.3845" y1="16.2737" x2="5.62801" y2="21.1132" gradientUnits="userSpaceOnUse">
<stop stopColor="#0163E4"/>
<stop offset="1" stopColor="#62A5FF"/>
</linearGradient>
<linearGradient id="paint3_linear_4695_8809" x1="6.73154" y1="13.4458" x2="0.752575" y2="17.714" gradientUnits="userSpaceOnUse">
<stop stopColor="#0163E4"/>
<stop offset="1" stopColor="#62A5FF"/>
</linearGradient>
<radialGradient id="paint4_radial_4695_8809" cx="0" cy="0" r="1" gradientUnits="userSpaceOnUse" gradientTransform="translate(24.899 5.52946) rotate(-32.4378) scale(22.2741)">
<stop stopColor="white"/>
<stop offset="0.1648" stopColor="#66A8FB"/>
<stop offset="0.4218" stopColor="#2D7EE6"/>
<stop offset="0.857" stopColor="#0060D6"/>
</radialGradient>
</defs>
</svg>
