<svg width="40" height="41" viewBox="0 0 40 41" fill="none" xmlns="http://www.w3.org/2000/svg">
<path fillRule="evenodd" clipRule="evenodd" d="M3.85812 16.6026V12.4262C3.85812 8.16491 7.31307 4.70996 11.5744 4.70996C15.8357 4.70996 19.2906 8.16491 19.2906 12.4262C19.2906 13.491 18.4264 14.3553 17.3615 14.3553C16.2967 14.3553 15.4325 13.491 15.4325 12.4262C15.4325 10.2946 13.706 8.56808 11.5744 8.56808C9.44275 8.56808 7.71624 10.2946 7.71624 12.4262V16.2843H17.3963C20.5734 16.2843 23.1487 18.8596 23.1487 22.0368V29.8225C23.1487 31.3483 22.543 32.8125 21.4646 33.8909C20.3863 34.9692 18.9221 35.5749 17.3963 35.5749H7.71624C6.6514 35.5749 5.78718 34.7107 5.78718 33.6459C5.78718 31.5162 4.05874 29.7877 1.92906 29.7877C0.864219 29.7877 0 28.9235 0 27.8587V22.0368C0 19.5232 1.61076 17.3858 3.85812 16.6026ZM3.85812 33.6459C3.85812 34.7107 2.9939 35.5749 1.92906 35.5749C0.864219 35.5749 0 34.7107 0 33.6459C0 32.581 0.864219 31.7168 1.92906 31.7168C2.9939 31.7168 3.85812 32.581 3.85812 33.6459ZM9.6453 24.0006V27.8587C9.6453 28.9235 10.5095 29.7877 11.5744 29.7877C12.6392 29.7877 13.5034 28.9235 13.5034 27.8587V24.0006C13.5034 22.9357 12.6392 22.0715 11.5744 22.0715C10.5095 22.0715 9.6453 22.9357 9.6453 24.0006ZM23.1487 16.2843H25.0778C26.1426 16.2843 27.0068 15.4201 27.0068 14.3553C27.0068 13.2904 26.1426 12.4262 25.0778 12.4262H23.1487C22.0839 12.4262 21.2197 13.2904 21.2197 14.3553C21.2197 15.4201 22.0839 16.2843 23.1487 16.2843ZM24.5126 9.93193L26.4416 8.00287C27.194 7.25053 27.194 6.02751 26.4416 5.27518C25.6893 4.52284 24.4663 4.52284 23.7139 5.27518L21.7849 7.20424C21.0325 7.95657 21.0325 9.17959 21.7849 9.93193C22.5372 10.6843 23.7602 10.6843 24.5126 9.93193Z" fill="url(#paint0_linear_4695_6802)"/>
<defs>
<linearGradient id="paint0_linear_4695_6802" x1="13.5034" y1="4.70996" x2="13.5034" y2="35.5749" gradientUnits="userSpaceOnUse">
<stop stopColor="#78CCFF"/>
<stop offset="1" stopColor="#3F53FF"/>
</linearGradient>
</defs>
</svg>
