<svg width="40" height="41" viewBox="0 0 40 41" fill="none" xmlns="http://www.w3.org/2000/svg">
<path d="M26.843 5.00293H21.009C20.7787 5.00408 20.5538 5.07339 20.3628 5.20213C20.1717 5.33086 20.0231 5.51326 19.9356 5.72634C19.8462 5.93883 19.8218 6.17302 19.8654 6.39936C19.909 6.62571 20.0187 6.83406 20.1806 6.99814L22.2808 9.0867L16.3418 15.0257L12.5031 11.1753C12.3946 11.0659 12.2656 10.9791 12.1234 10.9199C11.9812 10.8606 11.8287 10.8301 11.6747 10.8301C11.5207 10.8301 11.3681 10.8606 11.226 10.9199C11.0838 10.9791 10.9547 11.0659 10.8463 11.1753L0.345135 21.6764C0.235773 21.7849 0.148971 21.9139 0.0897346 22.0561C0.0304982 22.1983 0 22.3508 0 22.5048C0 22.6588 0.0304982 22.8113 0.0897346 22.9535C0.148971 23.0957 0.235773 23.2248 0.345135 23.3332C0.453603 23.4426 0.582652 23.5294 0.724836 23.5886C0.86702 23.6479 1.01953 23.6784 1.17356 23.6784C1.32759 23.6784 1.48009 23.6479 1.62228 23.5886C1.76446 23.5294 1.89351 23.4426 2.00198 23.3332L11.6747 13.6489L15.5134 17.4993C15.6219 17.6086 15.7509 17.6954 15.8931 17.7547C16.0353 17.8139 16.1878 17.8444 16.3418 17.8444C16.4959 17.8444 16.6484 17.8139 16.7906 17.7547C16.9328 17.6954 17.0618 17.6086 17.1703 17.4993L23.926 10.7319L26.0146 12.8321C26.1236 12.9402 26.2529 13.0258 26.395 13.0839C26.5372 13.1419 26.6894 13.1714 26.843 13.1705C26.996 13.1744 27.1479 13.1424 27.2864 13.0771C27.4994 12.9896 27.6818 12.8409 27.8106 12.6499C27.9393 12.4589 28.0086 12.234 28.0098 12.0037V6.16972C28.0098 5.86027 27.8868 5.56349 27.668 5.34468C27.4492 5.12586 27.1524 5.00293 26.843 5.00293Z" fill="url(#paint0_linear_4695_6758)"/>
<path fillRule="evenodd" clipRule="evenodd" d="M22.7679 17.4775H26.9567C27.535 17.4775 28.0039 17.9464 28.0039 18.5247V34.2326C28.0039 34.811 27.535 35.2798 26.9567 35.2798H22.7679C22.1895 35.2798 21.7207 34.811 21.7207 34.2326V18.5247C21.7207 17.9464 22.1895 17.4775 22.7679 17.4775ZM17.5328 21.6689H13.3441C12.7657 21.6689 12.2969 22.1378 12.2969 22.7161V34.2352C12.2969 34.8136 12.7657 35.2824 13.3441 35.2824H17.5328C18.1112 35.2824 18.58 34.8136 18.58 34.2352V22.7161C18.58 22.1378 18.1112 21.6689 17.5328 21.6689ZM8.10705 25.854H3.91829C3.33994 25.854 2.87109 26.3228 2.87109 26.9012V34.2315C2.87109 34.8099 3.33994 35.2787 3.91829 35.2787H8.10705C8.6854 35.2787 9.15424 34.8099 9.15424 34.2315V26.9012C9.15424 26.3228 8.6854 25.854 8.10705 25.854Z" fill="url(#paint1_linear_4695_6758)"/>
<defs>
<linearGradient id="paint0_linear_4695_6758" x1="22.7564" y1="3.44047" x2="6.43188e-07" y2="22.7061" gradientUnits="userSpaceOnUse">
<stop stopColor="#77CCFF"/>
<stop offset="0.704346" stopColor="#291FD6"/>
<stop offset="1" stopColor="#1007B1" stopOpacity="0"/>
</linearGradient>
<linearGradient id="paint1_linear_4695_6758" x1="22.6655" y1="17.4775" x2="22.6655" y2="35.2798" gradientUnits="userSpaceOnUse">
<stop stopColor="#79CFFF"/>
<stop offset="1" stopColor="#1E34F3"/>
</linearGradient>
</defs>
</svg>
